<svg width="41" height="40" viewBox="0 0 41 40" fill="none" xmlns="http://www.w3.org/2000/svg">
<path fill-rule="evenodd" clip-rule="evenodd" d="M16.8721 30.2744C16.8716 33.5513 17.9891 36.3063 20.2245 38.5396L20.2238 38.5375C20.7387 39.0555 21.2983 39.527 21.8962 39.9465C21.4347 39.9782 20.9705 40 20.5007 40C9.45424 40 0.500023 31.0451 0.500023 19.9986C0.492897 15.3149 2.13605 10.7784 5.14091 7.18589C5.45087 8.66322 6.27155 9.89398 7.61 10.8753C8.09878 11.2874 8.65058 11.6183 9.24431 11.8553C9.80458 12.0737 10.4581 12.2916 11.2048 12.5091L12.7926 12.9318C14.2874 13.493 15.2211 14.2403 15.5935 15.1735C15.9354 16.0767 15.8112 16.8394 15.2208 17.4617C14.5981 18.115 13.8509 18.4417 12.9793 18.4417C11.4539 18.4421 10.1312 17.7419 9.01114 16.3408L4.85491 18.5354C6.78415 21.4942 9.33659 22.9737 12.5122 22.9737C15.0642 22.9728 17.0406 22.2255 18.4416 20.732H18.488C19.795 19.4249 20.4485 17.806 20.4485 15.8752C20.4607 14.5136 20.0442 13.1826 19.258 12.0709C18.4716 10.9413 17.4223 10.0199 16.2007 9.38604C15.7945 9.16905 14.3621 8.65547 11.9036 7.8453C10.2223 7.28499 9.50636 6.41353 9.75574 5.23091C9.85013 4.73259 10.1225 4.31224 10.5729 3.96986C11.0233 3.62747 11.5603 3.45628 12.184 3.45628C13.0556 3.45628 13.8023 3.82966 14.4241 4.57643L18.3465 2.43687C17.7631 1.65547 17.0422 0.987005 16.219 0.464276C18.4796 -0.033816 20.8099 -0.132052 23.1043 0.174022C22.4787 1.02224 22.161 2.00149 22.161 3.11671C22.1471 4.31973 22.5807 5.485 23.3776 6.38629C21.9936 7.59427 21.3016 9.09719 21.3016 10.8951C21.3011 12.5192 21.8778 13.9077 23.0317 15.0608C24.1856 16.2138 25.5818 16.7903 27.2204 16.7903C28.8439 16.7917 30.2323 16.2152 31.3857 15.0608C32.5392 13.9063 33.1159 12.5178 33.1159 10.8951V8.14753H36.6106C39.6169 12.2332 40.9576 17.309 40.3613 22.3465C39.765 27.3839 37.2761 32.0063 33.3991 35.2771L33.3082 35.1862L33.2624 35.2313C31.8549 36.6403 30.2328 37.3447 28.3961 37.3447C26.4978 37.3447 24.86 36.6255 23.4826 35.1869C22.1357 33.7478 21.4622 32.1099 21.4622 30.273C21.4627 28.3784 22.1514 26.7111 23.5284 25.2711C24.9053 23.8621 26.5279 23.1576 28.3961 23.1576C30.3216 23.1571 31.9592 23.891 33.3089 25.3591L36.6148 22.0529C34.3799 19.7267 31.6403 18.5635 28.3961 18.5635C25.2129 18.5635 22.4891 19.6961 20.2245 21.9613C17.9895 24.1979 16.8721 26.9689 16.8721 30.2744ZM29.142 12.8163C28.6323 13.3261 27.9419 13.6138 27.2211 13.6165C26.8614 13.6208 26.5046 13.5521 26.1722 13.4146C25.8398 13.277 25.5388 13.0735 25.2874 12.8162C25.0314 12.5651 24.8278 12.2655 24.6885 11.9351C24.5492 11.6046 24.477 11.2497 24.4759 10.8911C24.4749 10.5324 24.5451 10.1772 24.6824 9.84588C24.8198 9.51459 25.0216 9.21389 25.2761 8.96123C25.7912 8.44361 26.4908 8.1517 27.2211 8.14964V4.97518C26.9763 4.97835 26.7335 4.93128 26.5076 4.83689C26.2818 4.7425 26.0777 4.60278 25.908 4.42637C25.7318 4.25665 25.5922 4.05264 25.4978 3.82692C25.4034 3.60119 25.3563 3.35854 25.3592 3.11389C25.3563 2.86905 25.4035 2.6262 25.4979 2.40025C25.5922 2.17431 25.7318 1.97005 25.908 1.8C26.0779 1.62396 26.2821 1.48453 26.5079 1.39027C26.7337 1.29602 26.9764 1.24893 27.2211 1.2519C27.2804 1.24749 27.3391 1.23614 27.3958 1.21809C29.71 2.0714 31.8462 3.34596 33.6963 4.97729H29.9416V10.8951C29.939 11.6159 29.6516 12.3065 29.142 12.8163Z" fill="#231F20"/>
</svg>
