<svg width="240" height="40" viewBox="0 0 240 40" fill="none" xmlns="http://www.w3.org/2000/svg">
<path fill-rule="evenodd" clip-rule="evenodd" d="M163.622 29.6886V0H159.784V29.6886H163.622ZM16.8131 14.8276V11.2949H20.3131V4.71889H24.1777V11.2949H27.6815V14.8276H24.1777V29.7628H20.34V14.8276H16.8131ZM6.07896 11.0725C7.0555 11.0805 8.01452 11.3238 8.86899 11.7806C9.75199 12.2291 10.5203 12.8623 11.1179 13.634L7.88653 15.3466C7.66983 15.0718 7.39071 14.8486 7.07068 14.6944C6.75065 14.5402 6.39824 14.4589 6.04058 14.4569C5.56262 14.4457 5.09473 14.5907 4.71273 14.8684C4.36408 15.1063 4.12359 15.4647 4.04113 15.8693C3.83389 16.8108 4.42362 17.5052 5.81032 17.9525C7.01055 18.3034 8.19153 18.7129 9.34871 19.1795C10.3553 19.6827 11.2195 20.4156 11.8663 21.3147C12.5155 22.1992 12.8593 23.259 12.8487 24.3433C12.8673 25.0596 12.7334 25.772 12.4555 26.4364C12.1776 27.1008 11.7616 27.703 11.233 28.2059H11.1947C10.0408 29.3945 8.4123 29.9889 6.30923 29.9889C3.69189 29.9889 1.58882 28.8113 0 26.4562L3.42325 24.7102C4.34943 25.8273 5.43934 26.3845 6.693 26.3821C7.04013 26.3855 7.38408 26.3179 7.70224 26.1837C8.02039 26.0495 8.30554 25.8518 8.53895 25.6036C8.77631 25.3668 8.93324 25.0657 8.98879 24.7405C9.04433 24.4153 8.99584 24.0814 8.8498 23.7835C8.53895 23.0421 7.7714 22.4453 6.54716 21.9968L5.2385 21.6632C4.62446 21.4889 4.08718 21.3184 3.62282 21.1442C3.13384 20.9539 2.67918 20.6899 2.27577 20.362C1.59477 19.9139 1.04044 19.3086 0.663115 18.6011C0.285791 17.8935 0.0974283 17.1061 0.115132 16.3104C0.105043 15.6042 0.258695 14.9047 0.564825 14.2633C0.870955 13.6219 1.3218 13.0547 1.88432 12.6035C3.03493 11.6041 4.53167 11.0578 6.07896 11.0725ZM49.4075 25.7744C50.4621 24.2231 51.0137 22.4032 50.9919 20.5474C51.0242 19.3009 50.792 18.0613 50.3095 16.9049C49.827 15.7484 49.1045 14.6996 48.1865 13.8231C47.2889 12.9514 46.2218 12.2597 45.0465 11.7877C43.8712 11.3157 42.6109 11.0728 41.3381 11.0728C40.0653 11.0728 38.805 11.3157 37.6297 11.7877C36.4544 12.2597 35.3873 12.9514 34.4897 13.8231C33.5715 14.6995 32.8489 15.7482 32.3664 16.9047C31.8839 18.0612 31.6518 19.3009 31.6843 20.5474C31.6538 21.7886 31.887 23.0227 32.3695 24.1735C32.852 25.3243 33.5736 26.3674 34.4897 27.2384C35.8457 28.5532 37.5769 29.4475 39.4619 29.807C41.3469 30.1664 43.3001 29.9748 45.0717 29.2564C46.8433 28.5381 48.3529 27.3258 49.4075 25.7744ZM37.226 24.5249C36.1393 23.4669 35.5284 22.0377 35.5259 20.5474C35.5232 19.795 35.6755 19.0496 35.974 18.3547C36.2724 17.6597 36.7111 17.0291 37.2643 16.4994C37.7867 15.9602 38.4181 15.5302 39.1195 15.2363C39.8209 14.9424 40.5774 14.7907 41.3419 14.7907C42.1065 14.7907 42.8629 14.9424 43.5643 15.2363C44.2657 15.5302 44.8972 15.9602 45.4195 16.4994C45.9714 17.0297 46.4086 17.6606 46.7058 18.3555C47.0029 19.0505 47.154 19.7955 47.1503 20.5474C47.1547 21.2978 47 22.041 46.6957 22.7315C46.3915 23.4219 45.9441 24.0449 45.3811 24.562C44.8595 25.1043 44.227 25.5363 43.5237 25.8305C42.8204 26.1247 42.0616 26.2748 41.2951 26.2714C40.5287 26.2679 39.7714 26.1109 39.071 25.8103C38.3706 25.5096 37.7423 25.072 37.226 24.5249ZM101.738 22.108H86.6175C86.8873 23.3161 87.5967 24.3907 88.617 25.1365C89.6154 25.8815 90.8439 26.281 92.1055 26.2708C92.8717 26.2832 93.6318 26.1371 94.3348 25.8424C95.0377 25.5477 95.6673 25.1111 96.1811 24.562L99.0134 27.2013C98.117 28.0781 97.0505 28.7755 95.8748 29.2538C94.6991 29.7321 93.4374 29.9819 92.1617 29.9888C90.886 29.9957 89.6214 29.7596 88.4403 29.294C87.2591 28.8284 86.1846 28.1425 85.2782 27.2754C84.3701 26.3929 83.6567 25.3416 83.1811 24.1852C82.7055 23.0288 82.4776 21.7913 82.5112 20.5474C82.4819 19.3046 82.7118 18.0688 83.1871 16.9136C83.6625 15.7584 84.3736 14.7073 85.2782 13.8231C86.1627 12.9403 87.2244 12.241 88.3983 11.7681C89.5722 11.2952 90.8336 11.0585 92.1055 11.0725C93.4086 11.0452 94.7018 11.2969 95.8922 11.8097C97.0826 12.3224 98.1406 13.0834 98.9904 14.0381C100.82 16.0274 101.736 18.7174 101.738 22.108ZM86.6175 18.579H97.3632C97.069 17.4818 96.3911 16.5166 95.4443 15.847C94.4533 15.1692 93.2712 14.8005 92.0569 14.7905C90.8426 14.7806 89.6543 15.1299 88.6515 15.7914C87.6866 16.4907 86.9748 17.4662 86.6175 18.579ZM120.443 11.0358C119.788 10.7677 119.082 10.635 118.371 10.6462C117.668 10.6359 116.97 10.7639 116.32 11.0227C115.67 11.2815 115.082 11.6655 114.591 12.1512C113.64 13.0643 113.083 14.2913 113.032 15.5851C112.981 16.8789 113.439 18.1434 114.314 19.1239C113.616 19.6837 113.057 20.3875 112.678 21.1837C112.299 21.9798 112.109 22.8479 112.123 23.7242C112.123 25.3218 112.78 26.854 113.95 27.9836C115.119 29.1133 116.705 29.7479 118.359 29.7479C120.013 29.7479 121.6 29.1133 122.769 27.9836C123.939 26.854 124.596 25.3218 124.596 23.7242V20.9181H126.737V17.6782H121.242V23.7242C121.235 24.458 120.929 25.1596 120.389 25.6757C119.849 26.1918 119.119 26.4804 118.359 26.4784C117.98 26.4833 117.603 26.4135 117.252 26.2733C116.901 26.1331 116.583 25.9254 116.318 25.6629C116.049 25.4061 115.835 25.1001 115.689 24.7629C115.543 24.4256 115.468 24.0638 115.468 23.6983C115.468 23.3328 115.543 22.9709 115.689 22.6336C115.835 22.2964 116.049 21.9905 116.318 21.7336C116.586 21.4716 116.906 21.2637 117.259 21.1218C117.611 20.9799 117.989 20.9069 118.371 20.907V17.6671C117.85 17.6671 117.35 17.4672 116.981 17.1112C116.613 16.7553 116.406 16.2725 116.406 15.7692C116.406 15.2658 116.613 14.7831 116.981 14.4271C117.35 14.0712 117.85 13.8712 118.371 13.8712C118.635 13.8707 118.897 13.9224 119.14 14.0231C119.383 14.1238 119.602 14.2715 119.783 14.4569L122.174 12.2031C121.688 11.7016 121.098 11.304 120.443 11.0358ZM153.398 27.2013C152.502 28.0809 151.435 28.7803 150.257 29.2587C149.08 29.7372 147.816 29.9854 146.538 29.9888C145.261 29.9923 143.995 29.7509 142.815 29.2788C141.635 28.8067 140.563 28.1132 139.663 27.2384C138.746 26.3676 138.024 25.3246 137.541 24.1739C137.058 23.0231 136.824 21.7889 136.853 20.5474C136.822 19.3007 137.054 18.0609 137.538 16.9044C138.021 15.7479 138.744 14.6993 139.663 13.8231C140.549 12.9373 141.614 12.2362 142.791 11.7632C143.969 11.2901 145.234 11.0551 146.509 11.0725C147.798 11.0501 149.078 11.29 150.265 11.7767C151.452 12.2633 152.519 12.9858 153.398 13.8972L150.627 16.5736C150.116 16.0057 149.482 15.5521 148.771 15.2442C148.06 14.9363 147.288 14.7815 146.509 14.7906C145.744 14.7859 144.986 14.9355 144.285 15.2297C143.583 15.524 142.952 15.9564 142.433 16.4994C141.329 17.5603 140.706 19.0004 140.698 20.5045C140.691 22.0086 141.301 23.4543 142.395 24.5249C142.915 25.0793 143.55 25.5214 144.259 25.8223C144.968 26.1231 145.735 26.276 146.509 26.2708C147.274 26.2693 148.03 26.117 148.731 25.8231C149.433 25.5293 150.065 25.1001 150.589 24.562L150.627 24.5249L153.398 27.2013ZM189.837 20.5474C189.867 21.7889 189.633 23.0231 189.15 24.1739C188.667 25.3246 187.944 26.3676 187.028 27.2384C186.131 28.1099 185.064 28.8015 183.889 29.2734C182.714 29.7454 181.454 29.9883 180.181 29.9883C178.909 29.9883 177.649 29.7454 176.474 29.2734C175.299 28.8015 174.232 28.1099 173.335 27.2384C172.418 26.3676 171.696 25.3246 171.213 24.1739C170.73 23.0231 170.496 21.7889 170.526 20.5474C170.494 19.3007 170.727 18.0609 171.21 16.9044C171.693 15.7479 172.416 14.6993 173.335 13.8231C174.232 12.9515 175.299 12.2599 176.474 11.788C177.649 11.316 178.909 11.0731 180.181 11.0731C181.454 11.0731 182.714 11.316 183.889 11.788C185.064 12.2599 186.131 12.9515 187.028 13.8231C187.947 14.6993 188.67 15.7479 189.153 16.9044C189.636 18.0609 189.869 19.3007 189.837 20.5474ZM174.371 20.5474C174.371 22.0366 174.98 23.4657 176.063 24.5249C176.58 25.072 177.208 25.5096 177.908 25.8103C178.609 26.1109 179.366 26.2679 180.133 26.2714C180.899 26.2748 181.658 26.1247 182.361 25.8305C183.064 25.5363 183.697 25.1043 184.219 24.562C184.783 24.0456 185.231 23.4229 185.536 22.7323C185.841 22.0418 185.996 21.2981 185.992 20.5474C185.995 19.7953 185.843 19.0501 185.545 18.3552C185.247 17.6603 184.809 17.0295 184.257 16.4994C183.735 15.9602 183.103 15.5302 182.402 15.2363C181.7 14.9424 180.944 14.7907 180.179 14.7907C179.415 14.7907 178.658 14.9424 177.957 15.2363C177.256 15.5302 176.624 15.9602 176.102 16.4994C175.551 17.0302 175.114 17.6612 174.817 18.356C174.52 19.0508 174.368 19.7956 174.371 20.5474ZM200.429 21.7114V11.332H196.58V21.4037C196.557 24.0035 197.353 26.0843 198.967 27.6461C200.581 29.208 202.736 29.9889 205.43 29.9889C208.093 29.9864 210.232 29.2055 211.846 27.6461C213.461 26.0867 214.268 24.0059 214.268 21.4037V11.332H210.43V21.7114C210.433 23.1966 209.984 24.3791 209.083 25.2589C208.183 26.1386 206.965 26.5785 205.43 26.5785C203.887 26.581 202.668 26.1411 201.772 25.2589C200.877 24.3766 200.429 23.1941 200.429 21.7114ZM71.5851 29.9889V19.6095C71.5851 18.1268 71.1361 16.943 70.2381 16.0583C69.3401 15.1736 68.1222 14.7387 66.5846 14.7535C65.0495 14.7535 63.8304 15.1921 62.9272 16.0694C62.0241 16.9467 61.5763 18.1305 61.584 19.6207V30H57.7463V19.9172C57.7463 17.315 58.5548 15.2342 60.1717 13.6748C61.7887 12.1154 63.9302 11.3345 66.5961 11.332C69.2851 11.332 71.4393 12.1129 73.0588 13.6748C74.6784 15.2366 75.4728 17.3174 75.4421 19.9172V29.9889H71.5851ZM236.162 29.7257H240L239.988 0H236.151V13.3041L235.494 12.7443C235.213 12.5414 234.918 12.3557 234.612 12.1883C234.216 11.974 233.804 11.7882 233.38 11.6323C232.894 11.4513 232.391 11.3136 231.879 11.2208C231.347 11.1237 230.806 11.0741 230.264 11.0725C228.988 11.0551 227.723 11.2901 226.546 11.7632C225.368 12.2362 224.303 12.9373 223.417 13.8231C222.498 14.6993 221.775 15.7479 221.292 16.9044C220.809 18.0609 220.576 19.3007 220.608 20.5474C220.578 21.7889 220.812 23.0231 221.295 24.1739C221.778 25.3246 222.501 26.3676 223.417 27.2384C224.303 28.1241 225.368 28.8252 226.546 29.2982C227.723 29.7713 228.988 30.0063 230.264 29.9889C231.35 29.9981 232.427 29.7951 233.43 29.3921C234.145 29.1575 234.819 28.82 235.429 28.3912C235.693 28.2014 235.938 27.9893 236.162 27.7573V29.7257ZM226.111 24.599C225.03 23.5109 224.436 22.0554 224.457 20.5474C224.434 19.7944 224.569 19.0446 224.852 18.3428C225.136 17.6409 225.563 17.0014 226.107 16.4624C226.639 15.9168 227.285 15.4859 228.001 15.1978C228.717 14.9097 229.488 14.7709 230.264 14.7906C231.043 14.7752 231.817 14.9139 232.538 15.1982C233.259 15.4825 233.913 15.9064 234.458 16.4438C235.573 17.5279 236.198 18.9936 236.198 20.5214C236.198 22.0492 235.573 23.515 234.458 24.599C233.915 25.1398 233.262 25.5671 232.54 25.8547C231.819 26.1422 231.044 26.2838 230.264 26.2708C229.489 26.29 228.718 26.1509 228.003 25.8628C227.287 25.5748 226.643 25.1441 226.111 24.599Z" fill="#231F20"/>
</svg>
